<?xml version="1.0" encoding="UTF-8" standalone="no"?>
<svg
   xmlns:dc="http://purl.org/dc/elements/1.1/"
   xmlns:cc="http://creativecommons.org/ns#"
   xmlns:rdf="http://www.w3.org/1999/02/22-rdf-syntax-ns#"
   xmlns:svg="http://www.w3.org/2000/svg"
   xmlns="http://www.w3.org/2000/svg"
   xmlns:sodipodi="http://sodipodi.sourceforge.net/DTD/sodipodi-0.dtd"
   xmlns:inkscape="http://www.inkscape.org/namespaces/inkscape"
   version="1.1"
   viewBox="0 0 562.45325 235.11698"
   stroke-miterlimit="10"
   clip-path="url(#p.0)"
   id="svg2"
   inkscape:version="0.48.2 r9819"
   width="100%"
   height="100%"
   sodipodi:docname="iterations.svg"
   style="fill:none;stroke:none">
  <sodipodi:namedview
     pagecolor="#ffffff"
     bordercolor="#666666"
     borderopacity="1"
     objecttolerance="10"
     gridtolerance="10"
     guidetolerance="10"
     inkscape:pageopacity="0"
     inkscape:pageshadow="2"
     inkscape:window-width="1366"
     inkscape:window-height="750"
     id="namedview127"
     showgrid="false"
     fit-margin-top="10"
     fit-margin-left="10"
     fit-margin-right="10"
     fit-margin-bottom="10"
     inkscape:zoom="1.2361274"
     inkscape:cx="330.57269"
     inkscape:cy="113.25951"
     inkscape:window-x="0"
     inkscape:window-y="18"
     inkscape:window-maximized="0"
     inkscape:current-layer="svg2" />
  <metadata
     id="metadata131">
    <rdf:RDF>
      <cc:Work
         rdf:about="">
        <dc:format>image/svg+xml</dc:format>
        <dc:type
           rdf:resource="http://purl.org/dc/dcmitype/StillImage" />
        <dc:title />
      </cc:Work>
    </rdf:RDF>
  </metadata>
  <defs
     id="defs129" />
  <clipPath
     id="p.0">
    <path
       inkscape:connector-curvature="0"
       id="path5"
       clip-rule="nonzero"
       d="M 0,0 720,0 720,540 0,540 0,0 z" />
  </clipPath>
  <path
     style="fill:#cfe2f3;fill-rule:nonzero"
     inkscape:connector-curvature="0"
     id="path7"
     d="m 411.61501,35.416191 120.68203,0 0,152.690539 -120.68203,0 z" />
  <g
     id="g4557">
    <path
       d="m 411.78214,36.00974 120.68203,0 0,152.44047 -120.68203,0 z"
       id="path69"
       inkscape:connector-curvature="0"
       style="stroke:#000000;stroke-width:1.00000003;stroke-linecap:butt;stroke-linejoin:round;stroke-miterlimit:10;stroke-dasharray:none" />
    <path
       d="m 411.78214,150.34009 120.68203,0"
       id="path71"
       inkscape:connector-curvature="0"
       style="stroke:#000000;stroke-width:1.00000003;stroke-linecap:butt;stroke-linejoin:round;stroke-miterlimit:10;stroke-dasharray:none" />
    <path
       d="m 443.42274,35.880118 0,114.330342"
       id="path75"
       inkscape:connector-curvature="0"
       style="stroke:#000000;stroke-width:1.00000003;stroke-linecap:butt;stroke-linejoin:round;stroke-miterlimit:10;stroke-dasharray:none" />
    <path
       d="m 500.44651,35.738706 0,114.330354"
       id="path77"
       inkscape:connector-curvature="0"
       style="stroke:#000000;stroke-width:1.00000003;stroke-linecap:butt;stroke-linejoin:round;stroke-miterlimit:10;stroke-dasharray:none" />
  </g>
  <path
     style="fill:#cfe2f3;fill-rule:nonzero"
     inkscape:connector-curvature="0"
     id="path9"
     d="m 189.30599,150.00121 0,-114.455389 57.16518,114.455389 z" />
  <path
     style="fill:#cfe2f3;fill-rule:nonzero"
     inkscape:connector-curvature="0"
     id="path11"
     d="m 284.58129,35.416191 120.88207,0 0,152.365449 -120.88207,0 z" />
  <g
     id="g4551">
    <path
       d="m 284.74841,36.00974 120.68204,0 0,152.44047 -120.68204,0 z"
       id="path53"
       inkscape:connector-curvature="0"
       style="stroke:#000000;stroke-width:1.00000003;stroke-linecap:butt;stroke-linejoin:round;stroke-miterlimit:10;stroke-dasharray:none" />
    <path
       d="m 284.74841,150.34009 120.68204,0"
       id="path55"
       inkscape:connector-curvature="0"
       style="stroke:#000000;stroke-width:1.00000003;stroke-linecap:butt;stroke-linejoin:round;stroke-miterlimit:10;stroke-dasharray:none" />
    <path
       d="m 316.38902,35.880118 0,114.330342"
       id="path59"
       inkscape:connector-curvature="0"
       style="stroke:#000000;stroke-width:1.00000003;stroke-linecap:butt;stroke-linejoin:round;stroke-miterlimit:10;stroke-dasharray:none" />
    <path
       d="m 373.41277,35.738706 0,114.330354"
       id="path61"
       inkscape:connector-curvature="0"
       style="stroke:#000000;stroke-width:1.00000003;stroke-linecap:butt;stroke-linejoin:round;stroke-miterlimit:10;stroke-dasharray:none" />
  </g>
  <path
     style="fill:#cfe2f3;fill-rule:nonzero"
     inkscape:connector-curvature="0"
     id="path13"
     d="m 246.37689,149.74724 0,-113.830219 31.48336,113.830219 z" />
  <path
     style="fill:#cfe2f3;fill-rule:nonzero"
     inkscape:connector-curvature="0"
     id="path15"
     d="m 157.88341,35.952369 31.38333,0 0,114.080291 -31.38333,0 z" />
  <g
     id="g4545">
    <path
       d="m 157.71472,36.00974 120.68204,0 0,152.44047 -120.68204,0 z"
       id="path37"
       inkscape:connector-curvature="0"
       style="stroke:#000000;stroke-width:1.00000003;stroke-linecap:butt;stroke-linejoin:round;stroke-miterlimit:10;stroke-dasharray:none" />
    <path
       d="m 157.71472,150.34009 120.68204,0"
       id="path39"
       inkscape:connector-curvature="0"
       style="stroke:#000000;stroke-width:1.00000003;stroke-linecap:butt;stroke-linejoin:round;stroke-miterlimit:10;stroke-dasharray:none" />
    <path
       d="m 189.3553,35.880118 0,114.330342"
       id="path43"
       inkscape:connector-curvature="0"
       style="stroke:#000000;stroke-width:1.00000003;stroke-linecap:butt;stroke-linejoin:round;stroke-miterlimit:10;stroke-dasharray:none" />
    <path
       d="m 246.37907,35.738706 0,114.330354"
       id="path45"
       inkscape:connector-curvature="0"
       style="stroke:#000000;stroke-width:1.00000003;stroke-linecap:butt;stroke-linejoin:round;stroke-miterlimit:10;stroke-dasharray:none" />
  </g>
  <text
     sodipodi:linespacing="125%"
     id="text5055"
     y="100.55965"
     x="254.39191"
     style="font-size:15.71606445px;font-style:normal;font-variant:normal;font-weight:normal;font-stretch:normal;line-height:125%;letter-spacing:0px;word-spacing:0px;fill:#000000;fill-opacity:1;stroke:none;font-family:Arial;-inkscape-font-specification:Arial"
     xml:space="preserve"><tspan
       y="100.55965"
       x="254.39191"
       id="tspan5057"
       sodipodi:role="line">UI</tspan></text>
  <path
     style="fill:#cfe2f3;fill-rule:nonzero"
     inkscape:connector-curvature="0"
     id="path17"
     d="m 157.76557,187.66262 0,-37.81002 120.30694,37.81002 z" />
  <path
     style="fill:#cfe2f3;fill-rule:nonzero"
     inkscape:connector-curvature="0"
     id="path19"
     d="m 30.87326,150.03038 0,-114.655435 31.658404,114.655435 z" />
  <g
     id="g4539">
    <path
       d="m 30.513841,35.675443 120.682039,0 0,152.440467 -120.682039,0 z"
       id="path21"
       inkscape:connector-curvature="0"
       style="stroke:#000000;stroke-width:1.00000003;stroke-linecap:butt;stroke-linejoin:round;stroke-miterlimit:10;stroke-dasharray:none" />
    <path
       d="m 30.513841,150.0058 120.682039,0"
       id="path23"
       inkscape:connector-curvature="0"
       style="stroke:#000000;stroke-width:1.00000003;stroke-linecap:butt;stroke-linejoin:round;stroke-miterlimit:10;stroke-dasharray:none" />
    <path
       d="m 62.154432,35.545821 0,114.330349"
       id="path27"
       inkscape:connector-curvature="0"
       style="stroke:#000000;stroke-width:1.00000003;stroke-linecap:butt;stroke-linejoin:round;stroke-miterlimit:10;stroke-dasharray:none" />
    <path
       d="m 119.1782,35.404409 0,114.330351"
       id="path29"
       inkscape:connector-curvature="0"
       style="stroke:#000000;stroke-width:1.00000003;stroke-linecap:butt;stroke-linejoin:round;stroke-miterlimit:10;stroke-dasharray:none" />
  </g>
  <path
     style="stroke:#000000;stroke-width:2;stroke-linecap:butt;stroke-linejoin:round"
     inkscape:connector-curvature="0"
     id="path101"
     d="m 30.360649,213.76426 0,-15.87922" />
  <path
     style="fill:#000000;fill-rule:evenodd;stroke:#000000;stroke-width:1.00000003;stroke-linecap:butt;stroke-miterlimit:10;stroke-dasharray:none"
     inkscape:connector-curvature="0"
     id="path103"
     d="m 32.983469,197.88504 -2.62282,-7.20614 -2.622823,7.20614 z" />
  <path
     style="stroke:#000000;stroke-width:2;stroke-linecap:butt;stroke-linejoin:round"
     inkscape:connector-curvature="0"
     id="path105"
     d="m 153.57041,213.76426 0,-15.87922" />
  <path
     style="fill:#000000;fill-rule:evenodd;stroke:#000000;stroke-width:1.00000003;stroke-linecap:butt;stroke-miterlimit:10;stroke-dasharray:none"
     inkscape:connector-curvature="0"
     id="path107"
     d="m 156.19322,197.88504 -2.62281,-7.20614 -2.62283,7.20614 z" />
  <path
     style="stroke:#000000;stroke-width:2;stroke-linecap:butt;stroke-linejoin:round"
     inkscape:connector-curvature="0"
     id="path109"
     d="m 281.41133,212.96879 0,-15.87922" />
  <path
     style="fill:#000000;fill-rule:evenodd;stroke:#000000;stroke-width:1.00000003;stroke-linecap:butt;stroke-miterlimit:10;stroke-dasharray:none"
     inkscape:connector-curvature="0"
     id="path111"
     d="m 284.03415,197.08957 -2.62282,-7.20612 -2.62282,7.20612 z" />
  <path
     style="stroke:#000000;stroke-width:2;stroke-linecap:butt;stroke-linejoin:round"
     inkscape:connector-curvature="0"
     id="path113"
     d="m 409.22872,213.52266 0,-15.87922" />
  <path
     style="fill:#000000;fill-rule:evenodd;stroke:#000000;stroke-width:1.00000003;stroke-linecap:butt;stroke-miterlimit:10;stroke-dasharray:none"
     inkscape:connector-curvature="0"
     id="path115"
     d="m 411.85153,197.64344 -2.62281,-7.20615 -2.62281,7.20615 z" />
  <path
     style="stroke:#000000;stroke-width:2;stroke-linecap:butt;stroke-linejoin:round"
     inkscape:connector-curvature="0"
     id="path117"
     d="m 532.29704,213.52266 0,-15.87922" />
  <path
     style="fill:#000000;fill-rule:evenodd;stroke:#000000;stroke-width:1.00000003;stroke-linecap:butt;stroke-miterlimit:10;stroke-dasharray:none"
     inkscape:connector-curvature="0"
     id="path119"
     d="m 534.91987,197.64344 -2.62283,-7.20615 -2.62282,7.20615 z" />
  <path
     style="fill:#ffff00;fill-rule:nonzero;stroke:#ff9900;stroke-width:2;stroke-linecap:butt;stroke-linejoin:round"
     inkscape:connector-curvature="0"
     id="path121"
     d="m 513.35393,41.798333 4.88607,-2.468897 -4.23677,-4.05831 5.20233,-0.710952 -3.29873,-5.371438 5.16416,1.095269 -2.13599,-6.31834 4.77401,2.826929 -0.82755,-6.834724 4.05853,4.365832 0.53715,-6.885241 3.06639,5.607385 1.86546,-6.466707 1.86544,6.466707 3.06638,-5.607385 0.53717,6.885241 4.05854,-4.365832 -0.82755,6.834724 4.77401,-2.826929 -2.13602,6.31834 5.16419,-1.095269 -3.29875,5.371438 5.20238,0.710952 -4.23681,4.05831 4.88608,2.468897 -4.88608,2.468901 4.23681,4.058306 -5.20238,0.710956 3.29875,5.371435 -5.16419,-1.095269 2.13602,6.318332 -4.77401,-2.826921 0.82755,6.834724 -4.05854,-4.365832 -0.53717,6.885244 -3.06638,-5.607388 -1.86544,6.466707 -1.86546,-6.466707 -3.06639,5.607388 -0.53715,-6.885244 -4.05853,4.365832 0.82755,-6.834724 -4.77401,2.826921 2.13599,-6.318332 -5.16416,1.095269 3.29873,-5.371435 -5.20233,-0.710956 4.23677,-4.058306 z" />
  <path
     style="fill:#000000;fill-rule:nonzero"
     inkscape:connector-curvature="0"
     id="path123"
     d="m 519.8263,36.059248 4.63046,-5.764247 2.17585,1.748413 q 0.57054,0.458473 0.82373,0.757391 0.37113,0.409612 0.50198,0.841003 0.13083,0.43139 0.0175,0.929109 -0.11337,0.497722 -0.46303,0.932935 -0.59042,0.735041 -1.46732,0.865918 -0.87689,0.130876 -2.09534,-0.848228 l -1.47959,-1.188925 -1.88018,2.340525 -0.76399,-0.613894 z m 3.18799,-2.403633 1.48923,1.196689 q 0.73497,0.590572 1.27066,0.567476 0.53574,-0.02309 0.93973,-0.526007 0.28741,-0.357849 0.30965,-0.76179 0.0222,-0.403943 -0.20778,-0.731873 -0.15451,-0.20377 -0.67673,-0.623394 l -1.46991,-1.181144 -1.65485,2.060043 z m 3.64396,4.455938 q 0.9323,-1.160588 2.01341,-1.199 0.91448,-0.02908 1.68807,0.592581 0.8607,0.691595 0.95645,1.691589 0.0958,1.000001 -0.70448,1.996168 -0.64485,0.802742 -1.25954,1.072707 -0.61468,0.269968 -1.28471,0.153271 -0.6701,-0.116704 -1.21166,-0.551862 -0.87995,-0.707134 -0.96607,-1.699358 -0.0861,-0.992221 0.76853,-2.056096 z m 0.72529,0.582803 q -0.64486,0.802738 -0.61913,1.483853 0.0257,0.681118 0.5576,1.108507 0.52218,0.419617 1.19757,0.301877 0.67538,-0.117737 1.3358,-0.939816 0.62151,-0.773726 0.59094,-1.458729 -0.0306,-0.685 -0.55272,-1.104616 -0.53191,-0.427398 -1.19855,-0.310601 -0.66666,0.116787 -1.31151,0.919525 z m 2.42594,5.386935 4.63046,-5.764245 0.70594,0.567261 -4.63045,5.764246 -0.70595,-0.567262 z m 5.82202,-3.454002 0.6604,-0.822075 0.70591,0.567261 -0.66038,0.822075 -0.70593,-0.567261 z m -3.97005,4.942167 3.3485,-4.168444 0.70597,0.567269 -3.34856,4.168437 -0.70591,-0.567262 z m 2.5544,-3.57e-4 0.78175,0.453106 q -0.27608,0.462506 -0.18789,0.90737 0.0882,0.444856 0.57171,0.833393 0.48356,0.388536 0.87971,0.380649 0.39619,-0.0079 0.61373,-0.278685 0.19424,-0.241789 0.0903,-0.54815 -0.0674,-0.213274 -0.53105,-0.824592 -0.61824,-0.815088 -0.80145,-1.201052 -0.18329,-0.385968 -0.136,-0.761762 0.0472,-0.37579 0.2959,-0.685276 0.22528,-0.280474 0.54133,-0.416412 0.31607,-0.135935 0.6628,-0.111953 0.26542,0.0064 0.61674,0.153398 0.35125,0.147029 0.68007,0.411235 0.48353,0.388533 0.74319,0.827948 0.25962,0.439404 0.2443,0.824957 -0.0153,0.385542 -0.27392,0.846143 l -0.77395,-0.462776 q 0.2158,-0.367684 0.13712,-0.725334 -0.0787,-0.357653 -0.49451,-0.691791 -0.48353,-0.388536 -0.8245,-0.39991 -0.3409,-0.01138 -0.51962,0.21107 -0.10872,0.135402 -0.10721,0.311729 -0.006,0.185993 0.1154,0.41101 0.0753,0.124163 0.48872,0.679186 0.59115,0.809216 0.78507,1.171954 0.19397,0.36274 0.16507,0.74535 -0.0289,0.382609 -0.31634,0.740456 -0.28747,0.357846 -0.74395,0.500271 -0.45654,0.142416 -0.98321,0.0056 -0.52663,-0.13674 -1.01987,-0.533049 -0.81227,-0.652735 -0.96583,-1.333152 -0.15363,-0.680419 0.26642,-1.441007 z m 3.40264,4.787198 4.63045,-5.764254 0.70591,0.567261 -1.66263,2.069721 q 0.95164,-0.174318 1.70591,0.431796 0.46418,0.372994 0.65986,0.83261 0.19568,0.459624 0.0843,0.89535 -0.11131,0.435718 -0.60857,1.054701 l -2.12095,2.640337 -0.70594,-0.567269 2.12098,-2.640333 q 0.42731,-0.531938 0.39428,-0.956341 -0.033,-0.424396 -0.45851,-0.766307 -0.30948,-0.248661 -0.71806,-0.314433 -0.40867,-0.06577 -0.75003,0.121452 -0.34134,0.187232 -0.73753,0.68048 l -1.83357,2.28249 -0.70591,-0.567261 z" />
  <text
     sodipodi:linespacing="125%"
     id="text5003"
     y="173.36769"
     x="54.189392"
     style="font-size:15.71606445px;font-style:normal;font-variant:normal;font-weight:normal;font-stretch:normal;line-height:125%;letter-spacing:0px;word-spacing:0px;fill:#000000;fill-opacity:1;stroke:none;font-family:Arial;-inkscape-font-specification:Arial"
     xml:space="preserve"><tspan
       y="173.36769"
       x="54.189392"
       id="tspan5005"
       sodipodi:role="line">Algorithms</tspan></text>
  <text
     xml:space="preserve"
     style="font-size:15.71606445px;font-style:normal;font-variant:normal;font-weight:normal;font-stretch:normal;line-height:125%;letter-spacing:0px;word-spacing:0px;fill:#000000;fill-opacity:1;stroke:none;font-family:Arial;-inkscape-font-specification:Arial"
     x="182.18939"
     y="173.36769"
     id="text5007"
     sodipodi:linespacing="125%"><tspan
       sodipodi:role="line"
       id="tspan5009"
       x="182.18939"
       y="173.36769">Algorithms</tspan></text>
  <text
     sodipodi:linespacing="125%"
     id="text5011"
     y="173.36769"
     x="308.18939"
     style="font-size:15.71606445px;font-style:normal;font-variant:normal;font-weight:normal;font-stretch:normal;line-height:125%;letter-spacing:0px;word-spacing:0px;fill:#000000;fill-opacity:1;stroke:none;font-family:Arial;-inkscape-font-specification:Arial"
     xml:space="preserve"><tspan
       y="173.36769"
       x="308.18939"
       id="tspan5013"
       sodipodi:role="line">Algorithms</tspan></text>
  <text
     xml:space="preserve"
     style="font-size:15.71606445px;font-style:normal;font-variant:normal;font-weight:normal;font-stretch:normal;line-height:125%;letter-spacing:0px;word-spacing:0px;fill:#000000;fill-opacity:1;stroke:none;font-family:Arial;-inkscape-font-specification:Arial"
     x="434.18939"
     y="173.36769"
     id="text5015"
     sodipodi:linespacing="125%"><tspan
       sodipodi:role="line"
       id="tspan5017"
       x="434.18939"
       y="173.36769">Algorithms</tspan></text>
  <text
     xml:space="preserve"
     style="font-size:15.71606445px;font-style:normal;font-variant:normal;font-weight:normal;font-stretch:normal;line-height:125%;letter-spacing:0px;word-spacing:0px;fill:#000000;fill-opacity:1;stroke:none;font-family:Arial;-inkscape-font-specification:Arial"
     x="36.391884"
     y="100.55965"
     id="text5019"
     sodipodi:linespacing="125%"><tspan
       sodipodi:role="line"
       id="tspan5021"
       x="36.391884"
       y="100.55965">2D</tspan></text>
  <text
     sodipodi:linespacing="125%"
     id="text5023"
     y="100.55965"
     x="164.43675"
     style="font-size:15.71606445px;font-style:normal;font-variant:normal;font-weight:normal;font-stretch:normal;line-height:125%;letter-spacing:0px;word-spacing:0px;fill:#000000;fill-opacity:1;stroke:none;font-family:Arial;-inkscape-font-specification:Arial"
     xml:space="preserve"><tspan
       y="100.55965"
       x="164.43675"
       id="tspan5025"
       sodipodi:role="line">2D</tspan></text>
  <text
     xml:space="preserve"
     style="font-size:15.71606445px;font-style:normal;font-variant:normal;font-weight:normal;font-stretch:normal;line-height:125%;letter-spacing:0px;word-spacing:0px;fill:#000000;fill-opacity:1;stroke:none;font-family:Arial;-inkscape-font-specification:Arial"
     x="290.43677"
     y="100.55965"
     id="text5027"
     sodipodi:linespacing="125%"><tspan
       sodipodi:role="line"
       id="tspan5029"
       x="290.43677"
       y="100.55965">2D</tspan></text>
  <text
     sodipodi:linespacing="125%"
     id="text5031"
     y="100.55965"
     x="417.62778"
     style="font-size:15.71606445px;font-style:normal;font-variant:normal;font-weight:normal;font-stretch:normal;line-height:125%;letter-spacing:0px;word-spacing:0px;fill:#000000;fill-opacity:1;stroke:none;font-family:Arial;-inkscape-font-specification:Arial"
     xml:space="preserve"><tspan
       y="100.55965"
       x="417.62778"
       id="tspan5033"
       sodipodi:role="line">2D</tspan></text>
  <text
     sodipodi:linespacing="125%"
     id="text5035"
     y="100.55965"
     x="81.155983"
     style="font-size:15.71606445px;font-style:normal;font-variant:normal;font-weight:normal;font-stretch:normal;line-height:125%;letter-spacing:0px;word-spacing:0px;fill:#000000;fill-opacity:1;stroke:none;font-family:Arial;-inkscape-font-specification:Arial"
     xml:space="preserve"><tspan
       y="100.55965"
       x="81.155983"
       id="tspan5037"
       sodipodi:role="line">3D</tspan></text>
  <text
     xml:space="preserve"
     style="font-size:15.71606445px;font-style:normal;font-variant:normal;font-weight:normal;font-stretch:normal;line-height:125%;letter-spacing:0px;word-spacing:0px;fill:#000000;fill-opacity:1;stroke:none;font-family:Arial;-inkscape-font-specification:Arial"
     x="209.15599"
     y="100.55965"
     id="text5039"
     sodipodi:linespacing="125%"><tspan
       sodipodi:role="line"
       id="tspan5041"
       x="209.15599"
       y="100.55965">3D</tspan></text>
  <text
     sodipodi:linespacing="125%"
     id="text5043"
     y="100.55965"
     x="335.15601"
     style="font-size:15.71606445px;font-style:normal;font-variant:normal;font-weight:normal;font-stretch:normal;line-height:125%;letter-spacing:0px;word-spacing:0px;fill:#000000;fill-opacity:1;stroke:none;font-family:Arial;-inkscape-font-specification:Arial"
     xml:space="preserve"><tspan
       y="100.55965"
       x="335.15601"
       id="tspan5045"
       sodipodi:role="line">3D</tspan></text>
  <text
     xml:space="preserve"
     style="font-size:15.71606445px;font-style:normal;font-variant:normal;font-weight:normal;font-stretch:normal;line-height:125%;letter-spacing:0px;word-spacing:0px;fill:#000000;fill-opacity:1;stroke:none;font-family:Arial;-inkscape-font-specification:Arial"
     x="461.15601"
     y="100.55965"
     id="text5047"
     sodipodi:linespacing="125%"><tspan
       sodipodi:role="line"
       id="tspan5049"
       x="461.15601"
       y="100.55965">3D</tspan></text>
  <text
     xml:space="preserve"
     style="font-size:15.71606445px;font-style:normal;font-variant:normal;font-weight:normal;font-stretch:normal;line-height:125%;letter-spacing:0px;word-spacing:0px;fill:#000000;fill-opacity:1;stroke:none;font-family:Arial;-inkscape-font-specification:Arial"
     x="126.39189"
     y="100.55965"
     id="text5051"
     sodipodi:linespacing="125%"><tspan
       sodipodi:role="line"
       id="tspan5053"
       x="126.39189"
       y="100.55965">UI</tspan></text>
  <text
     xml:space="preserve"
     style="font-size:15.71606445px;font-style:normal;font-variant:normal;font-weight:normal;font-stretch:normal;line-height:125%;letter-spacing:0px;word-spacing:0px;fill:#000000;fill-opacity:1;stroke:none;font-family:Arial;-inkscape-font-specification:Arial"
     x="382.39191"
     y="100.55965"
     id="text5059"
     sodipodi:linespacing="125%"><tspan
       sodipodi:role="line"
       id="tspan5061"
       x="382.39191"
       y="100.55965">UI</tspan></text>
  <text
     sodipodi:linespacing="125%"
     id="text5063"
     y="100.55965"
     x="508.39191"
     style="font-size:15.71606445px;font-style:normal;font-variant:normal;font-weight:normal;font-stretch:normal;line-height:125%;letter-spacing:0px;word-spacing:0px;fill:#000000;fill-opacity:1;stroke:none;font-family:Arial;-inkscape-font-specification:Arial"
     xml:space="preserve"><tspan
       y="100.55965"
       x="508.39191"
       id="tspan5065"
       sodipodi:role="line">UI</tspan></text>
  <text
     sodipodi:linespacing="125%"
     id="text5079"
     y="22.897747"
     x="49.021297"
     style="font-size:15.71606445px;font-style:normal;font-variant:normal;font-weight:normal;font-stretch:normal;line-height:125%;letter-spacing:0px;word-spacing:0px;fill:#000000;fill-opacity:1;stroke:none;font-family:Arial;-inkscape-font-specification:Arial"
     xml:space="preserve"><tspan
       y="22.897747"
       x="49.021297"
       id="tspan5081"
       sodipodi:role="line">I. Prototype</tspan></text>
  <text
     xml:space="preserve"
     style="font-size:15.71606445px;font-style:normal;font-variant:normal;font-weight:normal;font-stretch:normal;line-height:125%;letter-spacing:0px;word-spacing:0px;fill:#000000;fill-opacity:1;stroke:none;font-family:Arial;-inkscape-font-specification:Arial"
     x="199.44823"
     y="22.897747"
     id="text5083"
     sodipodi:linespacing="125%"><tspan
       sodipodi:role="line"
       id="tspan5085"
       x="199.44823"
       y="22.897747">II. 2D</tspan></text>
  <text
     sodipodi:linespacing="125%"
     id="text5087"
     y="22.897747"
     x="323.44824"
     style="font-size:15.71606445px;font-style:normal;font-variant:normal;font-weight:normal;font-stretch:normal;line-height:125%;letter-spacing:0px;word-spacing:0px;fill:#000000;fill-opacity:1;stroke:none;font-family:Arial;-inkscape-font-specification:Arial"
     xml:space="preserve"><tspan
       y="22.897747"
       x="323.44824"
       id="tspan5089"
       sodipodi:role="line">III. 3D</tspan></text>
  <text
     xml:space="preserve"
     style="font-size:15.71606445px;font-style:normal;font-variant:normal;font-weight:normal;font-stretch:normal;line-height:125%;letter-spacing:0px;word-spacing:0px;fill:#000000;fill-opacity:1;stroke:none;font-family:Arial;-inkscape-font-specification:Arial"
     x="419.44824"
     y="22.897747"
     id="text5091"
     sodipodi:linespacing="125%"><tspan
       sodipodi:role="line"
       id="tspan5093"
       x="419.44824"
       y="22.897747">IV. Stabilisation</tspan></text>
  <text
     sodipodi:linespacing="125%"
     id="text5095"
     y="225.52432"
     x="6.3990216"
     style="font-size:15.71606445px;font-style:normal;font-variant:normal;font-weight:normal;font-stretch:normal;line-height:125%;letter-spacing:0px;word-spacing:0px;fill:#000000;fill-opacity:1;stroke:none;font-family:Arial;-inkscape-font-specification:Arial"
     xml:space="preserve"><tspan
       y="225.52432"
       x="6.3990216"
       id="tspan5097"
       sodipodi:role="line">10 Oct</tspan></text>
  <text
     xml:space="preserve"
     style="font-size:15.71606445px;font-style:normal;font-variant:normal;font-weight:normal;font-stretch:normal;line-height:125%;letter-spacing:0px;word-spacing:0px;fill:#000000;fill-opacity:1;stroke:none;font-family:Arial;-inkscape-font-specification:Arial"
     x="130.23419"
     y="225.52432"
     id="text5103"
     sodipodi:linespacing="125%"><tspan
       sodipodi:role="line"
       id="tspan5105"
       x="130.23419"
       y="225.52432">24 Oct</tspan></text>
  <text
     sodipodi:linespacing="125%"
     id="text5107"
     y="225.52432"
     x="260.59598"
     style="font-size:15.71606445px;font-style:normal;font-variant:normal;font-weight:normal;font-stretch:normal;line-height:125%;letter-spacing:0px;word-spacing:0px;fill:#000000;fill-opacity:1;stroke:none;font-family:Arial;-inkscape-font-specification:Arial"
     xml:space="preserve"><tspan
       y="225.52432"
       x="260.59598"
       id="tspan5109"
       sodipodi:role="line">7 Nov</tspan></text>
  <text
     xml:space="preserve"
     style="font-size:15.71606445px;font-style:normal;font-variant:normal;font-weight:normal;font-stretch:normal;line-height:125%;letter-spacing:0px;word-spacing:0px;fill:#000000;fill-opacity:1;stroke:none;font-family:Arial;-inkscape-font-specification:Arial"
     x="384.18124"
     y="225.52432"
     id="text5111"
     sodipodi:linespacing="125%"><tspan
       sodipodi:role="line"
       id="tspan5113"
       x="384.18124"
       y="225.52432">21 Nov</tspan></text>
  <text
     sodipodi:linespacing="125%"
     id="text5115"
     y="225.52432"
     x="511.5239"
     style="font-size:15.71606445px;font-style:normal;font-variant:normal;font-weight:normal;font-stretch:normal;line-height:125%;letter-spacing:0px;word-spacing:0px;fill:#000000;fill-opacity:1;stroke:none;font-family:Arial;-inkscape-font-specification:Arial"
     xml:space="preserve"><tspan
       y="225.52432"
       x="511.5239"
       id="tspan5117"
       sodipodi:role="line">5 Dec</tspan></text>
</svg>
