<?xml version="1.0" encoding="UTF-8" standalone="no"?>
<svg
   xmlns:dc="http://purl.org/dc/elements/1.1/"
   xmlns:cc="http://creativecommons.org/ns#"
   xmlns:rdf="http://www.w3.org/1999/02/22-rdf-syntax-ns#"
   xmlns:svg="http://www.w3.org/2000/svg"
   xmlns="http://www.w3.org/2000/svg"
   xmlns:sodipodi="http://sodipodi.sourceforge.net/DTD/sodipodi-0.dtd"
   xmlns:inkscape="http://www.inkscape.org/namespaces/inkscape"
   version="1.1"
   viewBox="0 0 438.85407 184.55394"
   stroke-miterlimit="10"
   clip-path="url(#p.0)"
   id="svg2"
   inkscape:version="0.48.2 r9819"
   width="100%"
   height="100%"
   sodipodi:docname="iterations.svg"
   style="fill:none;stroke:none">
  <sodipodi:namedview
     pagecolor="#ffffff"
     bordercolor="#666666"
     borderopacity="1"
     objecttolerance="10"
     gridtolerance="10"
     guidetolerance="10"
     inkscape:pageopacity="0"
     inkscape:pageshadow="2"
     inkscape:window-width="1366"
     inkscape:window-height="750"
     id="namedview127"
     showgrid="false"
     fit-margin-top="10"
     fit-margin-left="10"
     fit-margin-right="10"
     fit-margin-bottom="10"
     inkscape:zoom="1.2361274"
     inkscape:cx="332.28391"
     inkscape:cy="64.331756"
     inkscape:window-x="0"
     inkscape:window-y="18"
     inkscape:window-maximized="0"
     inkscape:current-layer="svg2" />
  <metadata
     id="metadata131">
    <rdf:RDF>
      <cc:Work
         rdf:about="">
        <dc:format>image/svg+xml</dc:format>
        <dc:type
           rdf:resource="http://purl.org/dc/dcmitype/StillImage" />
        <dc:title />
      </cc:Work>
    </rdf:RDF>
  </metadata>
  <defs
     id="defs129" />
  <clipPath
     id="p.0">
    <path
       d="M 0,0 720,0 720,540 0,540 0,0 z"
       clip-rule="nonzero"
       id="path5"
       inkscape:connector-curvature="0" />
  </clipPath>
  <path
     d="m 320.30628,28.401651 92.80782,0 0,117.267869 -92.80782,0 z"
     id="path7"
     inkscape:connector-curvature="0"
     style="fill:#cfe2f3;fill-rule:nonzero" />
  <g
     transform="matrix(0.76902767,0,0,0.76801007,3.762955,1.2016597)"
     id="g4557">
    <path
       style="stroke:#000000;stroke-width:1.30120456;stroke-linecap:butt;stroke-linejoin:round;stroke-miterlimit:10;stroke-dasharray:none"
       inkscape:connector-curvature="0"
       id="path69"
       d="m 411.78214,36.00974 120.68203,0 0,152.44047 -120.68203,0 z" />
    <path
       style="stroke:#000000;stroke-width:1.30120456;stroke-linecap:butt;stroke-linejoin:round;stroke-miterlimit:10;stroke-dasharray:none"
       inkscape:connector-curvature="0"
       id="path71"
       d="m 411.78214,150.34009 120.68203,0" />
    <path
       style="stroke:#000000;stroke-width:1.30120456;stroke-linecap:butt;stroke-linejoin:round;stroke-miterlimit:10;stroke-dasharray:none"
       inkscape:connector-curvature="0"
       id="path75"
       d="m 443.42274,35.880118 0,114.330342" />
    <path
       style="stroke:#000000;stroke-width:1.30120456;stroke-linecap:butt;stroke-linejoin:round;stroke-miterlimit:10;stroke-dasharray:none"
       inkscape:connector-curvature="0"
       id="path77"
       d="m 500.44651,35.738706 0,114.330354" />
  </g>
  <path
     d="m 149.3445,116.4041 0,-87.902892 43.9616,87.902892 z"
     id="path9"
     inkscape:connector-curvature="0"
     style="fill:#cfe2f3;fill-rule:nonzero" />
  <path
     d="m 222.61384,28.401651 92.96165,0 0,117.018199 -92.96165,0 z"
     id="path11"
     inkscape:connector-curvature="0"
     style="fill:#cfe2f3;fill-rule:nonzero" />
  <g
     transform="matrix(0.76902767,0,0,0.76801007,3.762955,1.2016597)"
     id="g4551">
    <path
       style="stroke:#000000;stroke-width:1.30120456;stroke-linecap:butt;stroke-linejoin:round;stroke-miterlimit:10;stroke-dasharray:none"
       inkscape:connector-curvature="0"
       id="path53"
       d="m 284.74841,36.00974 120.68204,0 0,152.44047 -120.68204,0 z" />
    <path
       style="stroke:#000000;stroke-width:1.30120456;stroke-linecap:butt;stroke-linejoin:round;stroke-miterlimit:10;stroke-dasharray:none"
       inkscape:connector-curvature="0"
       id="path55"
       d="m 284.74841,150.34009 120.68204,0" />
    <path
       style="stroke:#000000;stroke-width:1.30120456;stroke-linecap:butt;stroke-linejoin:round;stroke-miterlimit:10;stroke-dasharray:none"
       inkscape:connector-curvature="0"
       id="path59"
       d="m 316.38902,35.880118 0,114.330342" />
    <path
       style="stroke:#000000;stroke-width:1.30120456;stroke-linecap:butt;stroke-linejoin:round;stroke-miterlimit:10;stroke-dasharray:none"
       inkscape:connector-curvature="0"
       id="path61"
       d="m 373.41277,35.738706 0,114.330354" />
  </g>
  <path
     d="m 193.2336,116.20905 0,-87.422756 24.21157,87.422756 z"
     id="path13"
     inkscape:connector-curvature="0"
     style="fill:#cfe2f3;fill-rule:nonzero" />
  <path
     d="m 125.17966,28.813441 24.13465,0 0,87.614809 -24.13465,0 z"
     id="path15"
     inkscape:connector-curvature="0"
     style="fill:#cfe2f3;fill-rule:nonzero" />
  <g
     transform="matrix(0.76902767,0,0,0.76801007,3.762955,1.2016597)"
     id="g4545">
    <path
       style="stroke:#000000;stroke-width:1.30120456;stroke-linecap:butt;stroke-linejoin:round;stroke-miterlimit:10;stroke-dasharray:none"
       inkscape:connector-curvature="0"
       id="path37"
       d="m 157.71472,36.00974 120.68204,0 0,152.44047 -120.68204,0 z" />
    <path
       style="stroke:#000000;stroke-width:1.30120456;stroke-linecap:butt;stroke-linejoin:round;stroke-miterlimit:10;stroke-dasharray:none"
       inkscape:connector-curvature="0"
       id="path39"
       d="m 157.71472,150.34009 120.68204,0" />
    <path
       style="stroke:#000000;stroke-width:1.30120456;stroke-linecap:butt;stroke-linejoin:round;stroke-miterlimit:10;stroke-dasharray:none"
       inkscape:connector-curvature="0"
       id="path43"
       d="m 189.3553,35.880118 0,114.330342" />
    <path
       style="stroke:#000000;stroke-width:1.30120456;stroke-linecap:butt;stroke-linejoin:round;stroke-miterlimit:10;stroke-dasharray:none"
       inkscape:connector-curvature="0"
       id="path45"
       d="m 246.37907,35.738706 0,114.330354" />
  </g>
  <text
     transform="scale(1.0006623,0.99933815)"
     xml:space="preserve"
     style="font-size:12.07808971px;font-style:normal;font-variant:normal;font-weight:normal;font-stretch:normal;line-height:125%;letter-spacing:0px;word-spacing:0px;fill:#000000;fill-opacity:1;stroke:none;font-family:Arial;-inkscape-font-specification:Arial"
     x="199.26541"
     y="78.484428"
     id="text5055"
     sodipodi:linespacing="125%"><tspan
       sodipodi:role="line"
       id="tspan5057"
       x="199.26541"
       y="78.484428">UI</tspan></text>
  <path
     d="m 125.08904,145.32844 0,-29.03848 92.51937,29.03848 z"
     id="path17"
     inkscape:connector-curvature="0"
     style="fill:#cfe2f3;fill-rule:nonzero" />
  <path
     d="m 27.505346,116.4265 0,-88.056526 24.346189,88.056526 z"
     id="path19"
     inkscape:connector-curvature="0"
     style="fill:#cfe2f3;fill-rule:nonzero" />
  <g
     transform="matrix(0.76902767,0,0,0.76801007,3.762955,1.2016597)"
     id="g4539">
    <path
       style="stroke:#000000;stroke-width:1.30120456;stroke-linecap:butt;stroke-linejoin:round;stroke-miterlimit:10;stroke-dasharray:none"
       inkscape:connector-curvature="0"
       id="path21"
       d="m 30.513841,35.675443 120.682039,0 0,152.440467 -120.682039,0 z" />
    <path
       style="stroke:#000000;stroke-width:1.30120456;stroke-linecap:butt;stroke-linejoin:round;stroke-miterlimit:10;stroke-dasharray:none"
       inkscape:connector-curvature="0"
       id="path23"
       d="m 30.513841,150.0058 120.682039,0" />
    <path
       style="stroke:#000000;stroke-width:1.30120456;stroke-linecap:butt;stroke-linejoin:round;stroke-miterlimit:10;stroke-dasharray:none"
       inkscape:connector-curvature="0"
       id="path27"
       d="m 62.154432,35.545821 0,114.330349" />
    <path
       style="stroke:#000000;stroke-width:1.30120456;stroke-linecap:butt;stroke-linejoin:round;stroke-miterlimit:10;stroke-dasharray:none"
       inkscape:connector-curvature="0"
       id="path29"
       d="m 119.1782,35.404409 0,114.330351" />
  </g>
  <path
     d="m 27.111134,165.37476 0,-12.1954"
     id="path101"
     inkscape:connector-curvature="0"
     style="stroke:#000000;stroke-width:2;stroke-linecap:butt;stroke-linejoin:round" />
  <path
     d="m 29.128155,153.17936 -2.017021,-5.53439 -2.017024,5.53439 z"
     id="path103"
     inkscape:connector-curvature="0"
     style="fill:#000000;fill-rule:evenodd;stroke:#000000;stroke-width:1;stroke-linecap:butt;stroke-miterlimit:10;stroke-dasharray:none" />
  <path
     d="m 121.86285,165.37476 0,-12.1954"
     id="path105"
     inkscape:connector-curvature="0"
     style="stroke:#000000;stroke-width:2;stroke-linecap:butt;stroke-linejoin:round" />
  <path
     d="m 123.87986,153.17936 -2.01701,-5.53439 -2.01703,5.53439 z"
     id="path107"
     inkscape:connector-curvature="0"
     style="fill:#000000;fill-rule:evenodd;stroke:#000000;stroke-width:1;stroke-linecap:butt;stroke-miterlimit:10;stroke-dasharray:none" />
  <path
     d="m 220.17605,164.76383 0,-12.1954"
     id="path109"
     inkscape:connector-curvature="0"
     style="stroke:#000000;stroke-width:2;stroke-linecap:butt;stroke-linejoin:round" />
  <path
     d="m 222.19307,152.56843 -2.01702,-5.53437 -2.01702,5.53437 z"
     id="path111"
     inkscape:connector-curvature="0"
     style="fill:#000000;fill-rule:evenodd;stroke:#000000;stroke-width:1;stroke-linecap:butt;stroke-miterlimit:10;stroke-dasharray:none" />
  <path
     d="m 318.47116,165.18921 0,-12.1954"
     id="path113"
     inkscape:connector-curvature="0"
     style="stroke:#000000;stroke-width:2;stroke-linecap:butt;stroke-linejoin:round" />
  <path
     d="m 320.48817,152.99381 -2.01701,-5.5344 -2.01701,5.5344 z"
     id="path115"
     inkscape:connector-curvature="0"
     style="fill:#000000;fill-rule:evenodd;stroke:#000000;stroke-width:1;stroke-linecap:butt;stroke-miterlimit:10;stroke-dasharray:none" />
  <path
     d="m 413.1141,165.18921 0,-12.1954"
     id="path117"
     inkscape:connector-curvature="0"
     style="stroke:#000000;stroke-width:2;stroke-linecap:butt;stroke-linejoin:round" />
  <path
     d="m 415.13113,152.99381 -2.01703,-5.5344 -2.01702,5.5344 z"
     id="path119"
     inkscape:connector-curvature="0"
     style="fill:#000000;fill-rule:evenodd;stroke:#000000;stroke-width:1;stroke-linecap:butt;stroke-miterlimit:10;stroke-dasharray:none" />
  <text
     transform="scale(1.0006623,0.99933815)"
     xml:space="preserve"
     style="font-size:12.07808971px;font-style:normal;font-variant:normal;font-weight:normal;font-stretch:normal;line-height:125%;letter-spacing:0px;word-spacing:0px;fill:#000000;fill-opacity:1;stroke:none;font-family:Arial;-inkscape-font-specification:Arial"
     x="45.406025"
     y="134.43877"
     id="text5003"
     sodipodi:linespacing="125%"><tspan
       sodipodi:role="line"
       id="tspan5005"
       x="45.406025"
       y="134.43877">Algorithms</tspan></text>
  <text
     transform="scale(1.0006623,0.99933815)"
     sodipodi:linespacing="125%"
     id="text5007"
     y="134.43877"
     x="143.77643"
     style="font-size:12.07808971px;font-style:normal;font-variant:normal;font-weight:normal;font-stretch:normal;line-height:125%;letter-spacing:0px;word-spacing:0px;fill:#000000;fill-opacity:1;stroke:none;font-family:Arial;-inkscape-font-specification:Arial"
     xml:space="preserve"><tspan
       y="134.43877"
       x="143.77643"
       id="tspan5009"
       sodipodi:role="line">Algorithms</tspan></text>
  <text
     transform="scale(1.0006623,0.99933815)"
     xml:space="preserve"
     style="font-size:12.07808971px;font-style:normal;font-variant:normal;font-weight:normal;font-stretch:normal;line-height:125%;letter-spacing:0px;word-spacing:0px;fill:#000000;fill-opacity:1;stroke:none;font-family:Arial;-inkscape-font-specification:Arial"
     x="240.60979"
     y="134.43877"
     id="text5011"
     sodipodi:linespacing="125%"><tspan
       sodipodi:role="line"
       id="tspan5013"
       x="240.60979"
       y="134.43877">Algorithms</tspan></text>
  <text
     transform="scale(1.0006623,0.99933815)"
     sodipodi:linespacing="125%"
     id="text5015"
     y="134.43877"
     x="337.44312"
     style="font-size:12.07808971px;font-style:normal;font-variant:normal;font-weight:normal;font-stretch:normal;line-height:125%;letter-spacing:0px;word-spacing:0px;fill:#000000;fill-opacity:1;stroke:none;font-family:Arial;-inkscape-font-specification:Arial"
     xml:space="preserve"><tspan
       y="134.43877"
       x="337.44312"
       id="tspan5017"
       sodipodi:role="line">Algorithms</tspan></text>
  <text
     transform="scale(1.0006623,0.99933815)"
     sodipodi:linespacing="125%"
     id="text5019"
     y="78.484428"
     x="31.728308"
     style="font-size:12.07808971px;font-style:normal;font-variant:normal;font-weight:normal;font-stretch:normal;line-height:125%;letter-spacing:0px;word-spacing:0px;fill:#000000;fill-opacity:1;stroke:none;font-family:Arial;-inkscape-font-specification:Arial"
     xml:space="preserve"><tspan
       y="78.484428"
       x="31.728308"
       id="tspan5021"
       sodipodi:role="line">2D</tspan></text>
  <text
     transform="scale(1.0006623,0.99933815)"
     xml:space="preserve"
     style="font-size:12.07808971px;font-style:normal;font-variant:normal;font-weight:normal;font-stretch:normal;line-height:125%;letter-spacing:0px;word-spacing:0px;fill:#000000;fill-opacity:1;stroke:none;font-family:Arial;-inkscape-font-specification:Arial"
     x="130.13319"
     y="78.484428"
     id="text5023"
     sodipodi:linespacing="125%"><tspan
       sodipodi:role="line"
       id="tspan5025"
       x="130.13319"
       y="78.484428">2D</tspan></text>
  <text
     transform="scale(1.0006623,0.99933815)"
     sodipodi:linespacing="125%"
     id="text5027"
     y="78.484428"
     x="226.96655"
     style="font-size:12.07808971px;font-style:normal;font-variant:normal;font-weight:normal;font-stretch:normal;line-height:125%;letter-spacing:0px;word-spacing:0px;fill:#000000;fill-opacity:1;stroke:none;font-family:Arial;-inkscape-font-specification:Arial"
     xml:space="preserve"><tspan
       y="78.484428"
       x="226.96655"
       id="tspan5029"
       sodipodi:role="line">2D</tspan></text>
  <text
     transform="scale(1.0006623,0.99933815)"
     xml:space="preserve"
     style="font-size:12.07808971px;font-style:normal;font-variant:normal;font-weight:normal;font-stretch:normal;line-height:125%;letter-spacing:0px;word-spacing:0px;fill:#000000;fill-opacity:1;stroke:none;font-family:Arial;-inkscape-font-specification:Arial"
     x="324.71521"
     y="78.484428"
     id="text5031"
     sodipodi:linespacing="125%"><tspan
       sodipodi:role="line"
       id="tspan5033"
       x="324.71521"
       y="78.484428">2D</tspan></text>
  <text
     transform="scale(1.0006623,0.99933815)"
     xml:space="preserve"
     style="font-size:12.07808971px;font-style:normal;font-variant:normal;font-weight:normal;font-stretch:normal;line-height:125%;letter-spacing:0px;word-spacing:0px;fill:#000000;fill-opacity:1;stroke:none;font-family:Arial;-inkscape-font-specification:Arial"
     x="66.130356"
     y="78.484428"
     id="text5035"
     sodipodi:linespacing="125%"><tspan
       sodipodi:role="line"
       id="tspan5037"
       x="66.130356"
       y="78.484428">3D</tspan></text>
  <text
     transform="scale(1.0006623,0.99933815)"
     sodipodi:linespacing="125%"
     id="text5039"
     y="78.484428"
     x="164.50076"
     style="font-size:12.07808971px;font-style:normal;font-variant:normal;font-weight:normal;font-stretch:normal;line-height:125%;letter-spacing:0px;word-spacing:0px;fill:#000000;fill-opacity:1;stroke:none;font-family:Arial;-inkscape-font-specification:Arial"
     xml:space="preserve"><tspan
       y="78.484428"
       x="164.50076"
       id="tspan5041"
       sodipodi:role="line">3D</tspan></text>
  <text
     transform="scale(1.0006623,0.99933815)"
     xml:space="preserve"
     style="font-size:12.07808971px;font-style:normal;font-variant:normal;font-weight:normal;font-stretch:normal;line-height:125%;letter-spacing:0px;word-spacing:0px;fill:#000000;fill-opacity:1;stroke:none;font-family:Arial;-inkscape-font-specification:Arial"
     x="261.33411"
     y="78.484428"
     id="text5043"
     sodipodi:linespacing="125%"><tspan
       sodipodi:role="line"
       id="tspan5045"
       x="261.33411"
       y="78.484428">3D</tspan></text>
  <text
     transform="scale(1.0006623,0.99933815)"
     sodipodi:linespacing="125%"
     id="text5047"
     y="78.484428"
     x="358.16748"
     style="font-size:12.07808971px;font-style:normal;font-variant:normal;font-weight:normal;font-stretch:normal;line-height:125%;letter-spacing:0px;word-spacing:0px;fill:#000000;fill-opacity:1;stroke:none;font-family:Arial;-inkscape-font-specification:Arial"
     xml:space="preserve"><tspan
       y="78.484428"
       x="358.16748"
       id="tspan5049"
       sodipodi:role="line">3D</tspan></text>
  <text
     transform="scale(1.0006623,0.99933815)"
     sodipodi:linespacing="125%"
     id="text5051"
     y="78.484428"
     x="100.895"
     style="font-size:12.07808971px;font-style:normal;font-variant:normal;font-weight:normal;font-stretch:normal;line-height:125%;letter-spacing:0px;word-spacing:0px;fill:#000000;fill-opacity:1;stroke:none;font-family:Arial;-inkscape-font-specification:Arial"
     xml:space="preserve"><tspan
       y="78.484428"
       x="100.895"
       id="tspan5053"
       sodipodi:role="line">UI</tspan></text>
  <text
     transform="scale(1.0006623,0.99933815)"
     sodipodi:linespacing="125%"
     id="text5059"
     y="78.484428"
     x="297.6358"
     style="font-size:12.07808971px;font-style:normal;font-variant:normal;font-weight:normal;font-stretch:normal;line-height:125%;letter-spacing:0px;word-spacing:0px;fill:#000000;fill-opacity:1;stroke:none;font-family:Arial;-inkscape-font-specification:Arial"
     xml:space="preserve"><tspan
       y="78.484428"
       x="297.6358"
       id="tspan5061"
       sodipodi:role="line">UI</tspan></text>
  <text
     transform="scale(1.0006623,0.99933815)"
     xml:space="preserve"
     style="font-size:12.07808971px;font-style:normal;font-variant:normal;font-weight:normal;font-stretch:normal;line-height:125%;letter-spacing:0px;word-spacing:0px;fill:#000000;fill-opacity:1;stroke:none;font-family:Arial;-inkscape-font-specification:Arial"
     x="394.46915"
     y="78.484428"
     id="text5063"
     sodipodi:linespacing="125%"><tspan
       sodipodi:role="line"
       id="tspan5065"
       x="394.46915"
       y="78.484428">UI</tspan></text>
  <text
     transform="scale(1.0006623,0.99933815)"
     xml:space="preserve"
     style="font-size:12.07808971px;font-style:normal;font-variant:normal;font-weight:normal;font-stretch:normal;line-height:125%;letter-spacing:0px;word-spacing:0px;fill:#000000;fill-opacity:1;stroke:none;font-family:Arial;-inkscape-font-specification:Arial"
     x="41.43425"
     y="18.799803"
     id="text5079"
     sodipodi:linespacing="125%"><tspan
       sodipodi:role="line"
       id="tspan5081"
       x="41.43425"
       y="18.799803">I. Prototype</tspan></text>
  <text
     transform="scale(1.0006623,0.99933815)"
     sodipodi:linespacing="125%"
     id="text5083"
     y="18.799803"
     x="157.04016"
     style="font-size:12.07808971px;font-style:normal;font-variant:normal;font-weight:normal;font-stretch:normal;line-height:125%;letter-spacing:0px;word-spacing:0px;fill:#000000;fill-opacity:1;stroke:none;font-family:Arial;-inkscape-font-specification:Arial"
     xml:space="preserve"><tspan
       y="18.799803"
       x="157.04016"
       id="tspan5085"
       sodipodi:role="line">II. 2D</tspan></text>
  <text
     transform="scale(1.0006623,0.99933815)"
     xml:space="preserve"
     style="font-size:12.07808971px;font-style:normal;font-variant:normal;font-weight:normal;font-stretch:normal;line-height:125%;letter-spacing:0px;word-spacing:0px;fill:#000000;fill-opacity:1;stroke:none;font-family:Arial;-inkscape-font-specification:Arial"
     x="252.3365"
     y="18.799803"
     id="text5087"
     sodipodi:linespacing="125%"><tspan
       sodipodi:role="line"
       id="tspan5089"
       x="252.3365"
       y="18.799803">III. 3D</tspan></text>
  <text
     transform="scale(1.0006623,0.99933815)"
     sodipodi:linespacing="125%"
     id="text5091"
     y="18.799803"
     x="326.11429"
     style="font-size:12.07808971px;font-style:normal;font-variant:normal;font-weight:normal;font-stretch:normal;line-height:125%;letter-spacing:0px;word-spacing:0px;fill:#000000;fill-opacity:1;stroke:none;font-family:Arial;-inkscape-font-specification:Arial"
     xml:space="preserve"><tspan
       y="18.799803"
       x="326.11429"
       id="tspan5093"
       sodipodi:role="line">IV. Stabilisation</tspan></text>
  <path
     d="m 398.54633,33.3032 3.75752,-1.896137 -3.25819,-3.116823 4.00073,-0.546019 -2.53681,-4.125318 3.97138,0.841177 -1.64263,-4.852548 3.67134,2.17111 -0.63641,-5.249137 3.12112,3.353003 0.41309,-5.287935 2.35814,4.306528 1.43459,-4.966496 1.43457,4.966496 2.35813,-4.306528 0.4131,5.287935 3.12113,-3.353003 -0.63641,5.249137 3.67135,-2.17111 -1.64266,4.852548 3.9714,-0.841177 -2.53683,4.125318 4.00078,0.546019 -3.25823,3.116823 3.75754,1.896137 -3.75754,1.896141 3.25823,3.11682 -4.00078,0.546021 2.53683,4.125317 -3.9714,-0.841178 1.64266,4.852543 -3.67135,-2.171104 0.63641,5.249137 -3.12113,-3.353003 -0.4131,5.287936 -2.35813,-4.30653 -1.43457,4.966496 -1.43459,-4.966496 -2.35814,4.30653 -0.41309,-5.287936 -3.12112,3.353003 0.63641,-5.249137 -3.67134,2.171104 1.64263,-4.852543 -3.97138,0.841178 2.53681,-4.125317 -4.00073,-0.546021 3.25819,-3.11682 z"
     id="path121"
     inkscape:connector-curvature="0"
     style="fill:#ffff00;fill-rule:nonzero;stroke:#ff9900;stroke-width:2;stroke-linecap:butt;stroke-linejoin:round" />
  <path
     d="m 403.52376,28.895525 3.56095,-4.426999 1.67329,1.342798 q 0.43876,0.352112 0.63347,0.581684 0.28541,0.314587 0.38604,0.645899 0.10061,0.331312 0.0135,0.713565 -0.0872,0.382256 -0.35609,0.716504 -0.45405,0.564519 -1.12841,0.665033 -0.67435,0.100515 -1.61137,-0.651447 l -1.13785,-0.913107 -1.44591,1.797547 -0.58753,-0.471477 z m 2.45165,-1.846014 1.14526,0.919069 q 0.56521,0.453566 0.97717,0.435828 0.412,-0.01773 0.72268,-0.403979 0.22103,-0.274832 0.23813,-0.585062 0.0171,-0.310233 -0.15979,-0.562086 -0.11882,-0.156498 -0.52042,-0.478773 l -1.1304,-0.907131 -1.27263,1.582134 z m 2.80231,3.422205 q 0.71696,-0.891343 1.54837,-0.920844 0.70326,-0.02233 1.29817,0.455108 0.6619,0.531152 0.73553,1.299158 0.0737,0.768011 -0.54176,1.533077 -0.49591,0.616514 -0.96862,0.82385 -0.47271,0.207338 -0.98798,0.117713 -0.51532,-0.08963 -0.9318,-0.423835 -0.6767,-0.543086 -0.74293,-1.305124 -0.0662,-0.762036 0.59102,-1.579103 z m 0.55777,0.447599 q -0.49592,0.616511 -0.47613,1.139614 0.0198,0.523105 0.42881,0.851345 0.40157,0.32227 0.92096,0.231844 0.51939,-0.09042 1.02727,-0.721788 0.47796,-0.594229 0.45445,-1.120319 -0.0235,-0.526087 -0.42506,-0.848356 -0.40905,-0.328246 -0.92172,-0.238545 -0.51268,0.08969 -1.00858,0.706205 z m 1.86561,4.13722 3.56095,-4.426998 0.54289,0.435662 -3.56094,4.426999 -0.5429,-0.435663 z m 4.4773,-2.652708 0.50786,-0.631362 0.54287,0.435662 -0.50785,0.631362 -0.54288,-0.435662 z m -3.05308,3.795634 2.57509,-3.201407 0.54291,0.435668 -2.57514,3.201402 -0.54286,-0.435663 z m 1.9644,-2.74e-4 0.60119,0.34799 q -0.21231,0.355209 -0.14449,0.696869 0.0678,0.341654 0.43966,0.640054 0.37187,0.2984 0.67652,0.292343 0.30468,-0.0061 0.47197,-0.214033 0.14938,-0.185697 0.0694,-0.420985 -0.0518,-0.163797 -0.4084,-0.633295 -0.47544,-0.625996 -0.61633,-0.92242 -0.14096,-0.296427 -0.10459,-0.585041 0.0363,-0.28861 0.22755,-0.526299 0.17325,-0.215407 0.4163,-0.319808 0.24307,-0.1044 0.50971,-0.08598 0.20412,0.0049 0.47429,0.117811 0.27013,0.11292 0.523,0.315832 0.37184,0.298398 0.57153,0.635873 0.19966,0.337467 0.18787,0.633575 -0.0118,0.2961 -0.21065,0.649846 l -0.59519,-0.355416 q 0.16596,-0.282385 0.10545,-0.557064 -0.0605,-0.274681 -0.38029,-0.531302 -0.37185,-0.2984 -0.63406,-0.307135 -0.26216,-0.0087 -0.39961,0.162104 -0.0836,0.10399 -0.0824,0.239411 -0.005,0.142844 0.0887,0.315659 0.0579,0.09536 0.37584,0.521622 0.45461,0.621486 0.60374,0.900073 0.14917,0.278587 0.12695,0.572436 -0.0222,0.293847 -0.24328,0.568678 -0.22107,0.274829 -0.57212,0.384213 -0.35109,0.109377 -0.75611,0.0043 -0.40499,-0.105018 -0.78431,-0.409387 -0.62466,-0.501308 -0.74275,-1.023875 -0.11815,-0.522568 0.20488,-1.106708 z m 2.61673,3.676616 3.56094,-4.427005 0.54286,0.435662 -1.2786,1.589567 q 0.73183,-0.133878 1.31189,0.331623 0.35696,0.286464 0.50745,0.639453 0.15048,0.352996 0.0648,0.687638 -0.0856,0.334636 -0.46801,0.810021 l -1.63107,2.027805 -0.54289,-0.435668 1.6311,-2.027802 q 0.32861,-0.408534 0.30321,-0.73448 -0.0254,-0.32594 -0.35261,-0.588531 -0.238,-0.190974 -0.55221,-0.241488 -0.31428,-0.05051 -0.57679,0.09328 -0.2625,0.143797 -0.56718,0.522616 l -1.41007,1.752975 -0.54286,-0.435662 z"
     id="path123"
     inkscape:connector-curvature="0"
     style="fill:#000000;fill-rule:nonzero" />
  <text
     transform="scale(1.0006623,0.99933815)"
     xml:space="preserve"
     style="font-size:12.07808971px;font-style:normal;font-variant:normal;font-weight:normal;font-stretch:normal;line-height:125%;letter-spacing:0px;word-spacing:0px;fill:#000000;fill-opacity:1;stroke:none;font-family:Arial;-inkscape-font-specification:Arial"
     x="8.6782322"
     y="174.52211"
     id="text5095"
     sodipodi:linespacing="125%"><tspan
       sodipodi:role="line"
       id="tspan5097"
       x="8.6782322"
       y="174.52211">10 Oct</tspan></text>
  <text
     transform="scale(1.0006623,0.99933815)"
     sodipodi:linespacing="125%"
     id="text5103"
     y="174.52211"
     x="103.84788"
     style="font-size:12.07808971px;font-style:normal;font-variant:normal;font-weight:normal;font-stretch:normal;line-height:125%;letter-spacing:0px;word-spacing:0px;fill:#000000;fill-opacity:1;stroke:none;font-family:Arial;-inkscape-font-specification:Arial"
     xml:space="preserve"><tspan
       y="174.52211"
       x="103.84788"
       id="tspan5105"
       sodipodi:role="line">24 Oct</tspan></text>
  <text
     transform="scale(1.0006623,0.99933815)"
     xml:space="preserve"
     style="font-size:12.07808971px;font-style:normal;font-variant:normal;font-weight:normal;font-stretch:normal;line-height:125%;letter-spacing:0px;word-spacing:0px;fill:#000000;fill-opacity:1;stroke:none;font-family:Arial;-inkscape-font-specification:Arial"
     x="204.03336"
     y="174.52211"
     id="text5107"
     sodipodi:linespacing="125%"><tspan
       sodipodi:role="line"
       id="tspan5109"
       x="204.03336"
       y="174.52211">7 Nov</tspan></text>
  <text
     transform="scale(1.0006623,0.99933815)"
     sodipodi:linespacing="125%"
     id="text5111"
     y="174.52211"
     x="299.01093"
     style="font-size:12.07808971px;font-style:normal;font-variant:normal;font-weight:normal;font-stretch:normal;line-height:125%;letter-spacing:0px;word-spacing:0px;fill:#000000;fill-opacity:1;stroke:none;font-family:Arial;-inkscape-font-specification:Arial"
     xml:space="preserve"><tspan
       y="174.52211"
       x="299.01093"
       id="tspan5113"
       sodipodi:role="line">21 Nov</tspan></text>
  <text
     transform="scale(1.0006623,0.99933815)"
     xml:space="preserve"
     style="font-size:12.07808971px;font-style:normal;font-variant:normal;font-weight:normal;font-stretch:normal;line-height:125%;letter-spacing:0px;word-spacing:0px;fill:#000000;fill-opacity:1;stroke:none;font-family:Arial;-inkscape-font-specification:Arial"
     x="396.87613"
     y="174.52211"
     id="text5115"
     sodipodi:linespacing="125%"><tspan
       sodipodi:role="line"
       id="tspan5117"
       x="396.87613"
       y="174.52211">5 Dec</tspan></text>
</svg>
